<svg width="68" height="68" viewBox="0 0 68 68" fill="none" xmlns="http://www.w3.org/2000/svg">
<rect width="68" height="68" rx="34" fill="#7AF57A" fill-opacity="0.08"/>
<g clip-path="url(#clip0_297_22450)">
<path d="M31.7288 15.0795C28.8093 15.4986 26.3378 16.7271 24.2854 18.8012C22.4137 20.6801 21.1563 23.0793 20.6649 25.6736C20.5059 26.5264 20.4481 28.81 20.5637 29.7133C20.8817 32.2715 21.8718 34.49 23.6639 36.6508C24.7479 37.9588 25.3116 39.0355 25.6296 40.4158L25.7813 41.0879H27.4723H29.1634V36.2461C29.1634 31.5271 29.1634 31.3971 29.3151 31.0285C29.5391 30.4576 30.7315 28.0006 31.7866 25.9338C32.6827 24.1777 32.726 24.1055 33.0223 23.9609C33.4053 23.7803 33.5932 23.7803 33.9835 23.9682C34.2942 24.1199 34.3014 24.1271 35.7684 27.0611C36.5778 28.6727 37.3727 30.3059 37.5389 30.6889L37.8352 31.3826V36.2389V41.0879H39.5262H41.2173L41.3401 40.5314C41.4846 39.8738 41.7159 39.2451 42.07 38.5369C42.4024 37.8865 42.6192 37.5686 43.3997 36.5713C44.9534 34.6057 45.7411 33.0303 46.2108 30.9707C46.5866 29.3303 46.6083 26.9889 46.2614 25.3557C45.1196 19.9574 40.7837 15.8816 35.3565 15.1084C34.5544 14.9928 32.4442 14.9783 31.7288 15.0795Z" fill="url(#paint0_linear_297_22450)"/>
<path d="M15.9538 20.904C15.4479 21.1497 15.2095 21.8724 15.4696 22.3783C15.6358 22.7035 16.9727 24.0693 17.3774 24.3294C18.129 24.8136 19.0179 24.4017 19.1046 23.5273C19.1263 23.296 19.0973 23.1154 19.0106 22.9419C18.8444 22.6167 17.5075 21.2509 17.1028 20.9908C16.727 20.7523 16.3296 20.7161 15.9538 20.904Z" fill="url(#paint1_linear_297_22450)"/>
<path d="M49.8986 20.9908C49.4939 21.251 48.157 22.6168 47.9908 22.942C47.7306 23.4551 47.9691 24.1777 48.4894 24.4234C49.1254 24.7269 49.5589 24.5174 50.6718 23.3756C51.5318 22.4939 51.6691 22.2627 51.6257 21.793C51.539 20.9185 50.6502 20.5066 49.8986 20.9908Z" fill="url(#paint2_linear_297_22450)"/>
<path d="M32.5594 29.0196C31.8296 30.4866 31.6778 30.8407 31.7573 30.8985C32.0102 31.0503 32.8557 31.1948 33.4989 31.1948C34.1421 31.1948 34.9876 31.0503 35.2405 30.8985C35.32 30.8407 35.1682 30.4866 34.4383 29.0196C33.9397 28.0296 33.5206 27.213 33.4989 27.213C33.4772 27.213 33.0581 28.0296 32.5594 29.0196Z" fill="url(#paint3_linear_297_22450)"/>
<path d="M15.477 28.2174C15.1445 28.4414 15 28.716 15 29.1641C15 29.6121 15.1445 29.8867 15.477 30.1107C15.6648 30.2336 15.8383 30.248 17.168 30.248C18.8012 30.248 18.8951 30.2264 19.1986 29.7711C19.3865 29.4893 19.3865 28.8389 19.1986 28.557C18.8951 28.1018 18.8012 28.0801 17.168 28.0801C15.8383 28.0801 15.6648 28.0945 15.477 28.2174Z" fill="url(#paint4_linear_297_22450)"/>
<path d="M48.141 28.2174C47.8086 28.4414 47.6641 28.716 47.6641 29.1641C47.6641 29.6121 47.8086 29.8867 48.141 30.1107C48.3289 30.2336 48.5023 30.248 49.832 30.248C51.4652 30.248 51.5592 30.2264 51.8627 29.7711C52.0506 29.4893 52.0506 28.8389 51.8627 28.557C51.5592 28.1018 51.4652 28.0801 49.832 28.0801C48.5023 28.0801 48.3289 28.0945 48.141 28.2174Z" fill="url(#paint5_linear_297_22450)"/>
<path d="M31.332 37.0482V41.0879H33.5H35.668V37.0482V33.0086L35.1115 33.1604C34.6562 33.2832 34.3383 33.3121 33.5 33.3121C32.6617 33.3121 32.3438 33.2832 31.8957 33.1604L31.332 33.0086V37.0482Z" fill="url(#paint6_linear_297_22450)"/>
<path d="M17.3791 33.9986C16.9744 34.2588 15.6375 35.6246 15.4713 35.9498C15.2111 36.4629 15.4496 37.1855 15.9699 37.4312C16.6058 37.7348 17.0394 37.5252 18.1523 36.3834C19.0123 35.5017 19.1496 35.2705 19.1062 34.8008C19.0195 33.9264 18.1306 33.5144 17.3791 33.9986Z" fill="url(#paint7_linear_297_22450)"/>
<path d="M48.4733 33.9119C47.9675 34.1576 47.729 34.8802 47.9891 35.3861C48.1554 35.7113 49.4923 37.0771 49.897 37.3372C50.6485 37.8214 51.5374 37.4095 51.6241 36.5351C51.6458 36.3038 51.6169 36.1232 51.5302 35.9497C51.3639 35.6245 50.027 34.2587 49.6223 33.9986C49.2466 33.7601 48.8491 33.724 48.4733 33.9119Z" fill="url(#paint8_linear_297_22450)"/>
<path d="M25.9121 44.1086C25.9121 44.7734 25.941 45.0625 26.0494 45.3732C26.3891 46.3633 27.1406 47.1148 28.1379 47.4545C28.5137 47.5846 28.8027 47.5918 33.5 47.5918C38.1973 47.5918 38.4863 47.5846 38.8621 47.4545C39.8594 47.1148 40.6109 46.3633 40.9506 45.3732C41.059 45.0625 41.0879 44.7734 41.0879 44.1086V43.2559H33.5H25.9121V44.1086Z" fill="url(#paint9_linear_297_22450)"/>
<path d="M28.4342 50.1861C28.7666 50.8293 29.2797 51.3496 29.9301 51.682L30.4865 51.9639H33.5H36.5135L37.0699 51.682C37.7203 51.3496 38.2334 50.8293 38.5658 50.1861L38.7754 49.7598H33.5H28.2246L28.4342 50.1861Z" fill="url(#paint10_linear_297_22450)"/>
</g>
<defs>
<linearGradient id="paint0_linear_297_22450" x1="53.7507" y1="16.3244" x2="20.0186" y2="41.6683" gradientUnits="userSpaceOnUse">
<stop stop-color="#51C8EF"/>
<stop offset="1" stop-color="#7AF57A"/>
</linearGradient>
<linearGradient id="paint1_linear_297_22450" x1="20.1554" y1="20.973" x2="15.3005" y2="24.628" gradientUnits="userSpaceOnUse">
<stop stop-color="#51C8EF"/>
<stop offset="1" stop-color="#7AF57A"/>
</linearGradient>
<linearGradient id="paint2_linear_297_22450" x1="52.6767" y1="20.9745" x2="47.8099" y2="24.6258" gradientUnits="userSpaceOnUse">
<stop stop-color="#51C8EF"/>
<stop offset="1" stop-color="#7AF57A"/>
</linearGradient>
<linearGradient id="paint3_linear_297_22450" x1="36.2402" y1="27.4134" x2="31.2911" y2="30.7107" gradientUnits="userSpaceOnUse">
<stop stop-color="#51C8EF"/>
<stop offset="1" stop-color="#7AF57A"/>
</linearGradient>
<linearGradient id="paint4_linear_297_22450" x1="20.5482" y1="28.1892" x2="17.8585" y2="32.2454" gradientUnits="userSpaceOnUse">
<stop stop-color="#51C8EF"/>
<stop offset="1" stop-color="#7AF57A"/>
</linearGradient>
<linearGradient id="paint5_linear_297_22450" x1="53.2123" y1="28.1892" x2="50.5225" y2="32.2454" gradientUnits="userSpaceOnUse">
<stop stop-color="#51C8EF"/>
<stop offset="1" stop-color="#7AF57A"/>
</linearGradient>
<linearGradient id="paint6_linear_297_22450" x1="36.8756" y1="33.4153" x2="29.3127" y2="36.4731" gradientUnits="userSpaceOnUse">
<stop stop-color="#51C8EF"/>
<stop offset="1" stop-color="#7AF57A"/>
</linearGradient>
<linearGradient id="paint7_linear_297_22450" x1="20.1572" y1="33.9823" x2="15.2903" y2="37.6336" gradientUnits="userSpaceOnUse">
<stop stop-color="#51C8EF"/>
<stop offset="1" stop-color="#7AF57A"/>
</linearGradient>
<linearGradient id="paint8_linear_297_22450" x1="52.675" y1="33.9808" x2="47.82" y2="37.6358" gradientUnits="userSpaceOnUse">
<stop stop-color="#51C8EF"/>
<stop offset="1" stop-color="#7AF57A"/>
</linearGradient>
<linearGradient id="paint9_linear_297_22450" x1="45.3147" y1="43.4741" x2="41.4422" y2="53.6852" gradientUnits="userSpaceOnUse">
<stop stop-color="#51C8EF"/>
<stop offset="1" stop-color="#7AF57A"/>
</linearGradient>
<linearGradient id="paint10_linear_297_22450" x1="41.714" y1="49.8707" x2="40.1853" y2="55.384" gradientUnits="userSpaceOnUse">
<stop stop-color="#51C8EF"/>
<stop offset="1" stop-color="#7AF57A"/>
</linearGradient>
<clipPath id="clip0_297_22450">
<rect width="37" height="37" fill="white" transform="translate(15 15)"/>
</clipPath>
</defs>
</svg>
