<svg width="68" height="68" viewBox="0 0 68 68" fill="none" xmlns="http://www.w3.org/2000/svg">
<rect width="68" height="68" rx="34" fill="#7AF57A" fill-opacity="0.08"/>
<g clip-path="url(#clip0_297_22483)">
<path d="M23.3407 16.116C19.6624 16.8025 16.7357 19.7871 16.107 23.4871C15.9335 24.5133 15.9986 26.2549 16.2515 27.216C16.6706 28.8564 17.4511 30.1861 18.7157 31.4291C19.8575 32.5564 21.0933 33.2791 22.582 33.691L23.1239 33.8428L23.2685 33.6766C23.348 33.5898 23.6515 33.2285 23.9405 32.8889C25.6821 30.8221 28.421 29.225 31.2683 28.6107L31.8247 28.4879L31.8753 28.1555C31.9693 27.4617 32.215 26.4355 32.4245 25.8357C32.6775 25.1203 33.2484 23.9352 33.5808 23.4582C33.8048 23.133 33.8048 23.1258 33.7181 22.6922C33.6675 22.4465 33.5013 21.9479 33.3495 21.5793C32.2655 18.9416 30.0253 16.9904 27.2431 16.2533C26.6144 16.0871 26.347 16.0582 25.2196 16.0365C24.273 16.0148 23.7599 16.0365 23.3407 16.116ZM22.6109 19.91C22.7915 20.0689 23.1673 20.7121 23.9261 22.1502C24.5042 23.2559 24.9884 24.1664 25.0029 24.1664C25.0173 24.1664 25.487 23.2775 26.0507 22.1936C27.2431 19.9027 27.4093 19.6859 28.0019 19.6859C28.4427 19.6859 28.7679 19.816 29.0136 20.0834C29.1581 20.2352 29.1943 20.3508 29.1943 20.6471C29.1943 21.0012 29.1364 21.1168 28.132 22.7789C27.5394 23.74 27.0624 24.5494 27.0624 24.5639C27.0624 24.5855 27.3226 24.6 27.6333 24.6C28.0814 24.6 28.2404 24.6289 28.3704 24.7301C28.5872 24.9107 28.5872 25.2721 28.3704 25.4889C28.2331 25.6334 28.132 25.6479 27.2937 25.6695L26.3759 25.6912L26.2458 25.9152C26.1808 26.0309 26.123 26.2404 26.123 26.3777V26.6234H27.1636C28.0669 26.6234 28.2259 26.6379 28.3704 26.7535C28.5872 26.9342 28.5872 27.2955 28.3704 27.5123C28.2259 27.6568 28.132 27.6713 27.1708 27.693L26.123 27.7146V28.618C26.123 29.5863 26.0724 29.767 25.7255 30.0922C25.5593 30.2512 25.4654 30.2729 25.0029 30.2729C24.5404 30.2729 24.4464 30.2512 24.2802 30.0922C23.9333 29.767 23.8827 29.5863 23.8827 28.618V27.7146L22.8349 27.693C21.8737 27.6713 21.7798 27.6568 21.6353 27.5123C21.4185 27.2955 21.4185 26.9342 21.6353 26.7535C21.7798 26.6379 21.9388 26.6234 22.8421 26.6234H23.8827V26.3777C23.8827 26.2404 23.8249 26.0309 23.7599 25.9152L23.6298 25.6912L22.7048 25.6695C21.7798 25.6479 21.7726 25.6479 21.5919 25.4383C21.4618 25.2865 21.4257 25.1781 21.4618 25.0408C21.5413 24.7012 21.7437 24.6 22.3724 24.6C22.6831 24.6 22.9433 24.5855 22.9433 24.5639C22.9433 24.5494 22.488 23.7762 21.9243 22.8584C21.3679 21.9406 20.8765 21.0951 20.8331 20.9795C20.6741 20.5098 20.9126 20.0039 21.3896 19.7871C21.5124 19.7365 21.7726 19.6932 21.9821 19.6859C22.3001 19.6859 22.4013 19.7221 22.6109 19.91Z" fill="url(#paint0_linear_297_22483)"/>
<path d="M41.4799 20.5965C37.8233 21.2396 34.9037 24.058 34.1739 27.6352C34.1088 27.9604 34.0727 28.235 34.0871 28.2566C34.1088 28.2711 34.5207 28.3145 35.0049 28.3578C36.0961 28.4445 37.0862 28.6469 38.1629 28.9865L38.9795 29.2467L39.1096 29.0877C39.2036 28.9721 39.3481 28.907 39.5866 28.8854C39.9118 28.8492 40.0057 28.777 39.8539 28.683C39.7239 28.6035 39.4926 27.7002 39.4926 27.2811C39.4926 25.1348 41.7618 23.7473 44.3922 24.282C45.8809 24.5855 47.0082 25.6189 47.0082 26.6957C47.0082 27.0064 46.7625 27.4111 46.5024 27.5412C46.2567 27.6641 45.628 27.6568 45.4473 27.5268C45.3606 27.4689 45.1871 27.216 45.0643 26.9703C44.6307 26.1104 44.2911 25.8863 43.4239 25.8863C42.5567 25.8863 41.9135 26.3055 41.7329 26.9992C41.6245 27.375 41.7401 28.0109 41.993 28.5168L42.1664 28.8637H43.0553C44.3416 28.8637 44.6957 29.0082 44.6957 29.5357C44.6957 30.0633 44.3561 30.2367 43.3299 30.2367H42.6145L42.6506 30.5113C42.6723 30.6631 42.6506 30.9088 42.6073 31.0678L42.535 31.3496L43.236 32.0145C43.8647 32.6143 43.9803 32.6937 44.3344 32.7732C44.6018 32.8311 44.9414 32.8383 45.3823 32.8021C46.4229 32.7082 46.5457 32.7154 46.7553 32.9105C47.1889 33.3152 47.1528 34.009 46.683 34.4209C46.4518 34.6232 46.0399 34.7895 45.7653 34.7895C45.5485 34.7895 45.5629 34.8979 45.9026 35.5555C46.0905 35.9096 46.3723 36.5311 46.5385 36.9357L46.8348 37.6729L47.3623 37.3838C48.4897 36.7695 49.776 35.5988 50.4987 34.5148C51.2141 33.4453 51.7416 32.0795 51.9223 30.8221C52.0524 29.9621 51.9801 28.1988 51.785 27.4184C51.467 26.1537 50.9323 25.0264 50.1952 24.058C48.7715 22.1863 46.7409 20.9578 44.45 20.5893C43.6407 20.4592 42.2459 20.4592 41.4799 20.5965Z" fill="url(#paint1_linear_297_22483)"/>
<path d="M33.3496 30.4967C31.702 30.6196 30.3 30.9953 28.9342 31.6891C25.133 33.5969 22.7266 37.4993 22.7266 41.7629C22.7266 44.7547 23.9117 47.602 26.0508 49.741C27.7418 51.4321 29.9242 52.5305 32.3018 52.8991C33.6025 53.0942 35.532 53.0002 36.8184 52.6823C38.1191 52.3498 39.8102 51.5188 40.9158 50.666C43.2139 48.9028 44.782 46.1567 45.1723 43.2516C45.5986 40.0285 44.6447 36.8344 42.4984 34.3485C41.0893 32.708 38.9719 31.3928 36.8762 30.8436C35.9078 30.5979 34.2385 30.4317 33.3496 30.4967ZM34.3396 33.5174C34.5275 33.6836 34.542 33.7342 34.5637 34.3485L34.5926 35.0061H34.8311C35.5031 35.0061 36.9557 35.4686 37.6783 35.9022C38.5311 36.4225 39.0514 37.203 38.9646 37.8389C38.8996 38.3448 38.5021 38.7494 37.9963 38.8145C37.635 38.8651 37.3459 38.7205 36.9846 38.3086C36.2186 37.4414 35.7705 37.0584 35.3803 36.9356C35.1707 36.8705 34.9033 36.8127 34.7877 36.8127H34.5781V38.6121V40.4188L34.9973 40.4983C35.6982 40.65 36.8979 41.0692 37.3893 41.3438C37.9529 41.6545 38.5455 42.2254 38.7695 42.6662C39.4561 44.0176 39.2754 45.8098 38.3359 46.8793C37.6639 47.6381 36.5076 48.1368 34.925 48.3391L34.5781 48.3825V48.9606C34.5781 49.6182 34.448 50.0084 34.2023 50.1024C33.7543 50.2686 33.4941 49.8494 33.4941 48.9823V48.3897L33.01 48.3391C31.702 48.209 30.5023 47.7032 29.7869 46.9805C28.8258 46.0194 28.5367 44.7403 29.151 44.1549C29.3895 43.9237 29.7797 43.8153 30.1627 43.8731C30.748 43.967 30.9287 44.1621 31.2973 45.1233C31.6441 46.0266 32.1572 46.4024 33.1906 46.518L33.4941 46.5541V44.5741V42.6012L33.1906 42.5217C31.4996 42.0953 30.5746 41.6401 29.9025 40.9102C28.7318 39.6383 28.8402 37.5932 30.1555 36.2707C30.8275 35.5987 32.2656 35.0061 33.2412 35.0061H33.4941V34.5002C33.4941 33.951 33.617 33.5463 33.8338 33.4235C34.0289 33.3078 34.1156 33.3295 34.3396 33.5174Z" fill="url(#paint2_linear_297_22483)"/>
<path d="M32.7353 36.9137C32.1716 37.0943 31.7091 37.434 31.4923 37.8459C31.3406 38.1422 31.355 38.7854 31.5284 39.1105C31.7669 39.573 32.4968 40.0139 33.2628 40.1584L33.4941 40.209V38.5107V36.8125L33.2628 36.8197C33.1327 36.8197 32.8943 36.8631 32.7353 36.9137Z" fill="url(#paint3_linear_297_22483)"/>
<path d="M34.5781 44.6894V46.561L34.8166 46.5249C36.1969 46.2864 36.8906 45.6794 36.8906 44.6894C36.8906 43.9739 36.6088 43.5692 35.8428 43.1862C35.5609 43.0489 34.8166 42.8104 34.6576 42.8104C34.5998 42.8104 34.5781 43.3741 34.5781 44.6894Z" fill="url(#paint4_linear_297_22483)"/>
</g>
<defs>
<linearGradient id="paint0_linear_297_22483" x1="38.719" y1="16.9253" x2="15.6757" y2="34.235" gradientUnits="userSpaceOnUse">
<stop stop-color="#51C8EF"/>
<stop offset="1" stop-color="#7AF57A"/>
</linearGradient>
<linearGradient id="paint1_linear_297_22483" x1="56.9746" y1="21.3574" x2="34.4965" y2="39.0054" gradientUnits="userSpaceOnUse">
<stop stop-color="#51C8EF"/>
<stop offset="1" stop-color="#7AF57A"/>
</linearGradient>
<linearGradient id="paint2_linear_297_22483" x1="51.5511" y1="31.616" x2="22.3899" y2="53.6121" gradientUnits="userSpaceOnUse">
<stop stop-color="#51C8EF"/>
<stop offset="1" stop-color="#7AF57A"/>
</linearGradient>
<linearGradient id="paint3_linear_297_22483" x1="34.0807" y1="36.9835" x2="30.572" y2="38.6228" gradientUnits="userSpaceOnUse">
<stop stop-color="#51C8EF"/>
<stop offset="1" stop-color="#7AF57A"/>
</linearGradient>
<linearGradient id="paint4_linear_297_22483" x1="37.5347" y1="42.9992" x2="33.6747" y2="44.7923" gradientUnits="userSpaceOnUse">
<stop stop-color="#51C8EF"/>
<stop offset="1" stop-color="#7AF57A"/>
</linearGradient>
<clipPath id="clip0_297_22483">
<rect width="37" height="37" fill="white" transform="translate(15.5 16)"/>
</clipPath>
</defs>
</svg>
