<svg width="68" height="68" viewBox="0 0 68 68" fill="none" xmlns="http://www.w3.org/2000/svg">
<rect width="68" height="68" rx="34" fill="#7AF57A" fill-opacity="0.08"/>
<path d="M33.7832 16.4119C33.4363 16.5492 33.4219 16.5998 33.4219 18.0017C33.4219 18.7316 33.4508 19.3965 33.4941 19.4687C33.6098 19.6855 33.9711 19.7722 34.2529 19.6566C34.5998 19.5049 34.6721 19.1869 34.6432 17.8283C34.6143 16.8455 34.5998 16.7082 34.4697 16.5853C34.318 16.4264 33.9639 16.3396 33.7832 16.4119Z" fill="url(#paint0_linear_297_22466)"/>
<path d="M27.8507 19.606C27.6122 19.8518 27.5833 20.0685 27.7712 20.3504C27.9301 20.5961 29.9247 22.381 30.1198 22.4533C30.5028 22.5978 30.893 22.2943 30.893 21.8607C30.893 21.55 30.7991 21.4488 29.3755 20.1769C28.3926 19.3025 28.2264 19.2375 27.8507 19.606Z" fill="url(#paint1_linear_297_22466)"/>
<path d="M39.4417 19.4904C39.102 19.6782 37.122 21.5572 37.0786 21.7306C36.9702 22.1714 37.3677 22.5761 37.794 22.4605C38.047 22.3882 39.9981 20.7044 40.2294 20.3503C40.4173 20.0685 40.3884 19.8517 40.1499 19.606C39.9259 19.382 39.7018 19.3458 39.4417 19.4904Z" fill="url(#paint2_linear_297_22466)"/>
<path d="M21.0067 21.2971C20.9634 21.3477 20.6671 22.0848 20.3419 22.9375C20.0167 23.7902 19.7348 24.5129 19.7059 24.5418C19.677 24.5707 18.9182 24.6285 18.0294 24.6719C16.0348 24.773 16.0782 24.7658 16.0782 25.0187C16.0782 25.1994 16.2516 25.3656 17.4151 26.2906C18.1595 26.8832 18.752 27.4107 18.752 27.4758C18.752 27.5408 18.5569 28.3213 18.3112 29.2102C17.8559 30.8939 17.8487 31.0312 18.1811 31.0312C18.2534 31.0312 18.9616 30.6049 19.7565 30.0918L21.1946 29.1451L22.6471 30.0918C24.1647 31.0891 24.4032 31.183 24.4466 30.8072C24.461 30.7061 24.2731 29.9184 24.0346 29.0439C23.7962 28.1768 23.6155 27.4396 23.6372 27.4035C23.6589 27.3674 24.0852 27.0133 24.5911 26.6086C26.3688 25.185 26.5061 25.0404 26.2532 24.8381C26.2026 24.7947 25.3932 24.7225 24.461 24.6791C23.2975 24.6213 22.7411 24.5707 22.6833 24.5057C22.6399 24.4623 22.3436 23.7396 22.0329 22.9086C21.7221 22.0775 21.4259 21.3549 21.368 21.3043C21.2452 21.1814 21.1079 21.1742 21.0067 21.2971Z" fill="url(#paint3_linear_297_22466)"/>
<path d="M33.8041 21.2898C33.7607 21.3404 33.4789 22.0631 33.1609 22.8869C32.8502 23.718 32.5611 24.4406 32.525 24.4984C32.4599 24.5779 32.0625 24.6213 30.7472 24.6791C29.815 24.7297 29.0056 24.7947 28.9623 24.8381C28.7093 25.026 28.8683 25.2139 30.1763 26.2617C30.8918 26.8326 31.506 27.3385 31.5349 27.3818C31.5711 27.418 31.3976 28.1912 31.1447 29.1162C30.675 30.8361 30.6605 31.0312 30.9713 31.0312C31.0508 31.0312 31.7662 30.6049 32.5611 30.0846L34.0064 29.1451L35.4445 30.0846C36.2322 30.6049 36.9476 31.0312 37.0271 31.0312C37.1066 31.0312 37.2006 30.9807 37.2367 30.9084C37.3017 30.7928 37.2439 30.5254 36.608 28.1912L36.3912 27.418L37.7425 26.3268C39.0867 25.2428 39.2746 25.0187 39.0433 24.8381C38.9927 24.7947 38.1834 24.7297 37.2511 24.6791C36.3189 24.6357 35.5312 24.5707 35.5023 24.5418C35.4662 24.5057 35.1771 23.783 34.8519 22.9303C34.534 22.0775 34.2377 21.3404 34.1943 21.2898C34.1582 21.2465 34.0715 21.2031 33.9992 21.2031C33.9269 21.2031 33.8402 21.2465 33.8041 21.2898Z" fill="url(#paint4_linear_297_22466)"/>
<path d="M46.5452 21.3624C46.4874 21.4563 46.1911 22.1935 45.8876 23.0101C45.5768 23.8267 45.3094 24.5132 45.2805 24.5421C45.2516 24.571 44.5001 24.6288 43.6112 24.6722C42.7151 24.7155 41.913 24.7661 41.8335 24.7806C41.66 24.8167 41.5733 24.9757 41.6311 25.1347C41.6528 25.1925 42.2743 25.72 43.0042 26.3054C43.734 26.898 44.3339 27.411 44.3339 27.4616C44.3339 27.5122 44.1387 28.271 43.9003 29.1526C43.6618 30.0343 43.4811 30.822 43.5028 30.8942C43.5895 31.1616 43.893 31.0315 45.2878 30.1138C46.0538 29.6151 46.7186 29.2032 46.7692 29.2032C46.8126 29.2032 47.4846 29.6151 48.2579 30.121C49.7176 31.0677 49.9778 31.1761 50.0284 30.8364C50.0428 30.7497 49.8549 29.962 49.6165 29.0876C49.378 28.2132 49.1973 27.4544 49.219 27.4038C49.2407 27.3532 49.8477 26.8401 50.5704 26.262C51.8639 25.2286 52.059 25.0118 51.835 24.8384C51.7844 24.795 50.9751 24.7228 50.0428 24.6794C48.8794 24.6216 48.3229 24.571 48.2651 24.506C48.2145 24.4626 47.911 23.7183 47.593 22.8655C47.2678 22.0128 46.9643 21.2901 46.9137 21.2612C46.762 21.1673 46.6536 21.1962 46.5452 21.3624Z" fill="url(#paint5_linear_297_22466)"/>
<path d="M33.4581 32.8377C31.8682 33.0473 30.6252 34.0951 30.0977 35.6561C29.8737 36.3209 29.8737 37.4482 30.0977 38.1131C30.6903 39.8764 32.1717 40.9531 34 40.9531C35.1563 40.9531 36.0958 40.5701 36.8834 39.7824C37.6928 38.973 38.0614 38.0625 38.0614 36.8846C38.0614 35.685 37.6928 34.7816 36.8473 33.9506C35.9729 33.0979 34.701 32.6787 33.4581 32.8377Z" fill="url(#paint6_linear_297_22466)"/>
<path d="M21.209 35.8082C20.349 35.9744 19.4963 36.6609 19.0916 37.5136C18.8748 37.9761 18.8604 38.0556 18.8604 38.8C18.8604 39.5443 18.8748 39.6238 19.0916 40.0791C19.583 41.1197 20.5225 41.7773 21.6137 41.8496C22.2785 41.8929 22.9361 41.7556 23.442 41.4593C24.4754 40.8523 25.1041 39.5299 24.909 38.3591C24.6127 36.5886 22.9795 35.4613 21.209 35.8082Z" fill="url(#paint7_linear_297_22466)"/>
<path d="M45.3537 35.8439C43.8361 36.2486 42.8316 37.7734 43.0918 39.2693C43.3881 40.9242 44.7178 41.9648 46.3871 41.8492C47.4783 41.7769 48.4178 41.1193 48.9092 40.0787C49.126 39.6234 49.1404 39.5439 49.1404 38.7996C49.1404 38.0552 49.126 37.9757 48.9092 37.5132C48.2732 36.1691 46.7701 35.4609 45.3537 35.8439Z" fill="url(#paint8_linear_297_22466)"/>
<path d="M32.6931 41.7193C31.4935 41.9434 30.041 42.5648 29.1521 43.2369C27.8441 44.2342 26.8035 45.7012 26.3193 47.2549C26.0447 48.1437 25.958 48.8158 25.9941 49.9721C26.0158 50.8898 26.0375 51.0561 26.1892 51.3668C26.4132 51.8221 26.789 52.1979 27.2443 52.4219L27.6056 52.6025H34.0011H40.3966L40.7507 52.4291C41.206 52.2051 41.589 51.8221 41.813 51.3668C41.9648 51.0561 41.9865 50.8898 42.0082 49.9721C42.0515 48.3605 41.8275 47.3127 41.1482 45.9902C40.7074 45.1375 40.2377 44.5016 39.5439 43.8439C38.5755 42.9262 37.4121 42.2686 36.0968 41.9C35.5115 41.741 35.2369 41.7121 34.2179 41.6904C33.5603 41.676 32.8738 41.6904 32.6931 41.7193Z" fill="url(#paint9_linear_297_22466)"/>
<path d="M21.1666 42.666C19.3889 42.8612 17.7196 43.9162 16.7729 45.4338C16.0358 46.6117 15.884 47.5656 16.3393 48.1365C16.7801 48.6858 16.5778 48.6641 20.986 48.6496L24.9244 48.6279L25.0184 48.057C25.1557 47.2477 25.4881 46.2938 25.9578 45.3904L26.3625 44.61L26.1168 44.357C24.9533 43.1285 22.9877 42.4637 21.1666 42.666Z" fill="url(#paint10_linear_297_22466)"/>
<path d="M45.5627 42.6371C44.1174 42.8033 42.7299 43.461 41.8482 44.3932L41.6387 44.6172L42.0434 45.3904C42.5131 46.2938 42.8455 47.2477 42.9828 48.057L43.0768 48.6279L47.0152 48.6496C51.4234 48.6641 51.2211 48.6858 51.6619 48.1365C52.1172 47.5656 51.9654 46.6117 51.2283 45.4338C50.3973 44.1041 48.8652 43.0346 47.3693 42.7528C46.8924 42.6588 45.9168 42.601 45.5627 42.6371Z" fill="url(#paint11_linear_297_22466)"/>
<defs>
<linearGradient id="paint0_linear_297_22466" x1="34.9907" y1="16.5533" x2="32.6795" y2="17.1965" gradientUnits="userSpaceOnUse">
<stop stop-color="#51C8EF"/>
<stop offset="1" stop-color="#7AF57A"/>
</linearGradient>
<linearGradient id="paint1_linear_297_22466" x1="31.7967" y1="19.5499" x2="27.741" y2="22.7524" gradientUnits="userSpaceOnUse">
<stop stop-color="#51C8EF"/>
<stop offset="1" stop-color="#7AF57A"/>
</linearGradient>
<linearGradient id="paint2_linear_297_22466" x1="41.2689" y1="19.5589" x2="37.2199" y2="22.8227" gradientUnits="userSpaceOnUse">
<stop stop-color="#51C8EF"/>
<stop offset="1" stop-color="#7AF57A"/>
</linearGradient>
<linearGradient id="paint3_linear_297_22466" x1="29.2118" y1="21.7029" x2="16.3493" y2="31.8369" gradientUnits="userSpaceOnUse">
<stop stop-color="#51C8EF"/>
<stop offset="1" stop-color="#7AF57A"/>
</linearGradient>
<linearGradient id="paint4_linear_297_22466" x1="41.9867" y1="21.6978" x2="29.1208" y2="31.8227" gradientUnits="userSpaceOnUse">
<stop stop-color="#51C8EF"/>
<stop offset="1" stop-color="#7AF57A"/>
</linearGradient>
<linearGradient id="paint5_linear_297_22466" x1="54.7841" y1="21.7019" x2="41.9271" y2="31.8745" gradientUnits="userSpaceOnUse">
<stop stop-color="#51C8EF"/>
<stop offset="1" stop-color="#7AF57A"/>
</linearGradient>
<linearGradient id="paint6_linear_297_22466" x1="40.3262" y1="33.2147" x2="29.7832" y2="41.1411" gradientUnits="userSpaceOnUse">
<stop stop-color="#51C8EF"/>
<stop offset="1" stop-color="#7AF57A"/>
</linearGradient>
<linearGradient id="paint7_linear_297_22466" x1="26.6389" y1="36.0532" x2="18.7366" y2="41.9795" gradientUnits="userSpaceOnUse">
<stop stop-color="#51C8EF"/>
<stop offset="1" stop-color="#7AF57A"/>
</linearGradient>
<linearGradient id="paint8_linear_297_22466" x1="50.8365" y1="36.0484" x2="42.927" y2="41.9802" gradientUnits="userSpaceOnUse">
<stop stop-color="#51C8EF"/>
<stop offset="1" stop-color="#7AF57A"/>
</linearGradient>
<linearGradient id="paint9_linear_297_22466" x1="46.4772" y1="42.2343" x2="31.8469" y2="58.4146" gradientUnits="userSpaceOnUse">
<stop stop-color="#51C8EF"/>
<stop offset="1" stop-color="#7AF57A"/>
</linearGradient>
<linearGradient id="paint10_linear_297_22466" x1="29.2259" y1="42.9334" x2="21.3611" y2="53.0442" gradientUnits="userSpaceOnUse">
<stop stop-color="#51C8EF"/>
<stop offset="1" stop-color="#7AF57A"/>
</linearGradient>
<linearGradient id="paint11_linear_297_22466" x1="54.7825" y1="42.9297" x2="46.9114" y2="53.0421" gradientUnits="userSpaceOnUse">
<stop stop-color="#51C8EF"/>
<stop offset="1" stop-color="#7AF57A"/>
</linearGradient>
</defs>
</svg>
